Coordinates
version=1
nRows=23
nColumns=38
inDegrees=no

Units are S.I. units (second, meters, Newtons, ...)
If the header above contains a line with 'inDegrees', this indicates whether rotational values are in degrees (yes) or radians (no).

endheader
time	pelvis_tilt	pelvis_list	pelvis_rotation	pelvis_tx	pelvis_ty	pelvis_tz	hip_flexion_r	hip_adduction_r	hip_rotation_r	knee_angle_r	ankle_angle_r	subtalar_angle_r	mtp_angle_r	hip_flexion_l	hip_adduction_l	hip_rotation_l	knee_angle_l	ankle_angle_l	subtalar_angle_l	mtp_angle_l	lumbar_extension	lumbar_bending	lumbar_rotation	arm_flex_r	arm_add_r	arm_rot_r	elbow_flex_r	pro_sup_r	wrist_flex_r	wrist_dev_r	arm_flex_l	arm_add_l	arm_rot_l	elbow_flex_l	pro_sup_l	wrist_flex_l	wrist_dev_l
0	0.102443	-0.0423941	-3.0323	-0.277614	0.879005	0.0314851	0.576726	-0.388509	-0.361271	1.00184	0.42923	0	0	0.630165	-0.0399402	-0.00434225	0.985467	0.449135	0	0	-0.163349	-0.00933656	-0.0602097	0.520819	-0.443111	0.870506	1.35524	1.05052	0	0	0.698323	-0.308586	1.09884	1.30954	1.04172	0	0
0.00997947	0.102416	-0.041529	-3.03084	-0.276698	0.876093	0.0310917	0.583098	-0.391083	-0.359915	1.01527	0.435535	0	0	0.63774	-0.0415454	-0.0033444	0.999009	0.4555	0	0	-0.165243	-0.00782293	-0.0619046	0.531166	-0.445203	0.862434	1.37893	1.05794	0	0	0.705951	-0.31028	1.08783	1.33086	1.05223	0	0
0.0199589	0.102419	-0.0406693	-3.02937	-0.27578	0.873181	0.0306928	0.589506	-0.393659	-0.358544	1.0287	0.441836	0	0	0.645345	-0.0431359	-0.00234068	1.01254	0.461852	0	0	-0.167116	-0.00631707	-0.0636075	0.54155	-0.447283	0.854442	1.40257	1.0653	0	0	0.713576	-0.311975	1.07686	1.35214	1.06274	0	0
0.0299384	0.10248	-0.039821	-3.02791	-0.274858	0.870266	0.0302797	0.595988	-0.396237	-0.357143	1.04211	0.448121	0	0	0.653007	-0.0446923	-0.00132123	1.02605	0.468166	0	0	-0.168949	-0.00482656	-0.0653288	0.552027	-0.449327	0.846653	1.42608	1.07253	0	0	0.721197	-0.313666	1.06596	1.37335	1.07326	0	0
0.0399179	0.102626	-0.0389913	-3.02646	-0.27393	0.867346	0.0298432	0.602571	-0.398816	-0.355693	1.0555	0.45438	0	0	0.660743	-0.046196	-0.000278363	1.03951	0.474406	0	0	-0.170735	-0.00335969	-0.0670748	0.562657	-0.45131	0.8392	1.44935	1.07956	0	0	0.728812	-0.315347	1.05521	1.3944	1.08377	0	0
0.0498973	0.102872	-0.0381898	-3.02503	-0.272992	0.864418	0.0293761	0.609273	-0.40139	-0.354176	1.06883	0.460596	0	0	0.66856	-0.0476329	0.000786252	1.0529	0.480524	0	0	-0.172474	-0.00192864	-0.0688424	0.573489	-0.453207	0.832205	1.47225	1.08632	0	0	0.736426	-0.317006	1.04464	1.41523	1.09428	0	0
0.0598768	0.10323	-0.0374307	-3.02363	-0.272043	0.861479	0.0288761	0.616112	-0.403954	-0.352565	1.08208	0.466748	0	0	0.676453	-0.0489958	0.00185559	1.0662	0.48646	0	0	-0.174176	-0.000552048	-0.070615	0.58456	-0.454998	0.825764	1.49469	1.09271	0	0	0.744046	-0.318633	1.03433	1.43575	1.10476	0	0
0.0698563	0.103703	-0.036733	-3.0223	-0.271082	0.858525	0.0283491	0.623109	-0.406506	-0.350823	1.09526	0.472805	0	0	0.684415	-0.0502851	0.00289606	1.07938	0.492147	0	0	-0.175853	0.000745303	-0.0723652	0.595891	-0.456667	0.819945	1.51655	1.0987	0	0	0.751684	-0.320215	1.02432	1.45589	1.1152	0	0
0.0798357	0.104294	-0.0361173	-3.02106	-0.270111	0.855551	0.0278123	0.630286	-0.409047	-0.348911	1.10835	0.478735	0	0	0.692435	-0.0515088	0.00386279	1.09243	0.497503	0	0	-0.177519	0.0019376	-0.0740614	0.607499	-0.458202	0.814794	1.53775	1.10425	0	0	0.759349	-0.321746	1.01463	1.47559	1.12559	0	0
0.0898152	0.105003	-0.0356017	-3.01993	-0.269132	0.852552	0.0272987	0.637668	-0.411581	-0.346796	1.12136	0.4845	0	0	0.700507	-0.0526802	0.00470865	1.10536	0.502443	0	0	-0.179186	0.00300446	-0.0756758	0.619387	-0.459594	0.810326	1.55822	1.10943	0	0	0.767049	-0.323223	1.00528	1.49477	1.13596	0	0
0.0997947	0.105827	-0.0351984	-3.01895	-0.268155	0.849523	0.0268599	0.645273	-0.414116	-0.344459	1.1343	0.490054	0	0	0.708629	-0.0538175	0.00539207	1.11817	0.506884	0	0	-0.180872	0.00393402	-0.0771829	0.631549	-0.460843	0.806532	1.5779	1.11431	0	0	0.774795	-0.324638	0.996249	1.5134	1.14633	0	0
0.109774	0.106756	-0.0349105	-3.01813	-0.267189	0.846459	0.0265699	0.653108	-0.416662	-0.341898	1.14721	0.495339	0	0	0.716801	-0.0549398	0.00588656	1.13088	0.510746	0	0	-0.182594	0.00472701	-0.0785652	0.643975	-0.461956	0.80338	1.59674	1.11897	0	0	0.782605	-0.325987	0.987559	1.53143	1.15666	0	0
0.119754	0.107776	-0.0347317	-3.01745	-0.266251	0.843356	0.0265278	0.661166	-0.41923	-0.339129	1.16009	0.50029	0	0	0.72502	-0.0560637	0.00618592	1.1435	0.513972	0	0	-0.18438	0.00539824	-0.0798191	0.656653	-0.462945	0.800836	1.61473	1.12347	0	0	0.790508	-0.327272	0.979217	1.54883	1.16688	0	0
0.129733	0.108848	-0.0346367	-3.01691	-0.265311	0.84023	0.0264796	0.669423	-0.421829	-0.336186	1.17296	0.504832	0	0	0.733289	-0.0572008	0.00630411	1.15607	0.516541	0	0	-0.186263	0.0059731	-0.0809579	0.669581	-0.463828	0.79886	1.63185	1.12785	0	0	0.79853	-0.328499	0.971238	1.5656	1.17692	0	0
0.139713	0.109943	-0.0346019	-3.01647	-0.264369	0.837077	0.026429	0.677842	-0.424464	-0.333111	1.18585	0.508891	0	0	0.741602	-0.0583624	0.00627336	1.16862	0.518489	0	0	-0.188279	0.00649081	-0.0820057	0.682756	-0.464618	0.797417	1.64809	1.13213	0	0	0.806698	-0.329676	0.963634	1.58172	1.18673	0	0
0.149692	0.111032	-0.0345999	-3.01612	-0.263422	0.833893	0.0263794	0.686378	-0.427135	-0.32995	1.19876	0.512397	0	0	0.749956	-0.0595568	0.0061361	1.18118	0.519887	0	0	-0.190461	0.00699486	-0.082996	0.696173	-0.465327	0.796463	1.66346	1.13629	0	0	0.815036	-0.330809	0.956416	1.5972	1.19623	0	0
0.159671	0.112086	-0.0346014	-3.0158	-0.262473	0.830673	0.0263343	0.694985	-0.42984	-0.326749	1.21171	0.515302	0	0	0.758352	-0.0607883	0.00593991	1.19379	0.520825	0	0	-0.192832	0.0075284	-0.0839652	0.709815	-0.465962	0.79595	1.67796	1.14026	0	0	0.823562	-0.331904	0.949594	1.61202	1.20536	0	0
0.169651	0.113089	-0.0345784	-3.01549	-0.261523	0.827411	0.0262957	0.703627	-0.432578	-0.323549	1.22472	0.517595	0	0	0.766799	-0.0620569	0.00573375	1.20648	0.521397	0	0	-0.195397	0.00812964	-0.0849458	0.723644	-0.466531	0.795815	1.69162	1.14394	0	0	0.832294	-0.332959	0.943186	1.62616	1.21403	0	0
0.17963	0.114029	-0.034506	-3.01513	-0.260574	0.824102	0.0262661	0.712278	-0.435346	-0.320385	1.2378	0.519318	0	0	0.775312	-0.0633568	0.00556514	1.2193	0.521692	0	0	-0.19815	0.00883097	-0.0859705	0.73762	-0.467038	0.795997	1.70448	1.14724	0	0	0.841235	-0.333973	0.937193	1.6396	1.22222	0	0
0.18961	0.114899	-0.0343626	-3.01472	-0.25963	0.820743	0.0262475	0.720913	-0.438142	-0.317285	1.25096	0.520543	0	0	0.783904	-0.0646786	0.00547992	1.23226	0.521789	0	0	-0.201076	0.00965589	-0.0870531	0.751683	-0.467505	0.796423	1.71659	1.15008	0	0	0.850392	-0.33493	0.931632	1.65231	1.22986	0	0
0.199589	0.115694	-0.0341298	-3.01421	-0.258694	0.817328	0.0262413	0.729513	-0.440967	-0.314279	1.26422	0.521356	0	0	0.792584	-0.0660083	0.00552208	1.24538	0.521754	0	0	-0.20416	0.0106234	-0.0882013	0.765774	-0.467956	0.797021	1.728	1.15245	0	0	0.859767	-0.335814	0.926508	1.66426	1.23696	0	0
0.209569	0.11641	-0.0337935	-3.01358	-0.257768	0.813855	0.0262491	0.738062	-0.443824	-0.311391	1.27758	0.521844	0	0	0.801358	-0.0673266	0.00573308	1.25868	0.52164	0	0	-0.207383	0.0117472	-0.0894204	0.779837	-0.468415	0.797719	1.73876	1.15434	0	0	0.869355	-0.336609	0.921825	1.67542	1.24356	0	0
0.219548	0.117054	-0.0333443	-3.01282	-0.256857	0.810322	0.0262726	0.74655	-0.446721	-0.308641	1.29104	0.52209	0	0	0.810238	-0.0686077	0.00615078	1.27215	0.521487	0	0	-0.210716	0.0130353	-0.0907184	0.793815	-0.468905	0.798455	1.74891	1.15584	0	0	0.87914	-0.337306	0.917576	1.6858	1.24973	0	0
